<?xml version="1.0" standalone="no"?>
<!DOCTYPE svg PUBLIC "-//W3C//DTD SVG 20010904//EN"
 "http://www.w3.org/TR/2001/REC-SVG-20010904/DTD/svg10.dtd">
<svg version="1.0" xmlns="http://www.w3.org/2000/svg"
 width="60.000000pt" height="60.000000pt" viewBox="0 0 600.000000 600.000000"
 preserveAspectRatio="xMidYMid meet">
<metadata>
Created by potrace 1.16, written by Peter Selinger 2001-2019
</metadata>
<g transform="translate(0.000000,600.000000) scale(0.100000,-0.100000)"
fill="#000000" stroke="none">
<path d="M2915 4170 c-3 -5 -15 -10 -26 -10 -10 0 -19 -4 -19 -10 0 -5 -5 -10
-10 -10 -12 0 -29 -13 -64 -49 -13 -13 -28 -28 -34 -33 -5 -6 -22 -22 -36 -37
-15 -14 -30 -30 -35 -35 -5 -4 -20 -19 -34 -33 -14 -14 -29 -30 -35 -35 -5 -6
-21 -21 -35 -35 -14 -14 -29 -30 -35 -35 -13 -13 -390 -390 -401 -402 -5 -4
-19 -19 -32 -32 -13 -13 -29 -29 -35 -35 -7 -6 -23 -22 -37 -36 -14 -14 -29
-30 -35 -35 -5 -6 -21 -21 -35 -35 -14 -14 -29 -30 -35 -35 -5 -6 -21 -21 -35
-35 -14 -14 -29 -30 -35 -35 -5 -6 -21 -21 -35 -35 -14 -14 -29 -30 -35 -35
-5 -6 -21 -21 -35 -35 -14 -14 -29 -29 -33 -34 -5 -5 -30 -29 -56 -53 -49 -47
-78 -92 -78 -126 0 -11 -4 -20 -10 -20 -6 0 -10 -35 -10 -85 0 -50 4 -85 10
-85 6 0 10 -11 10 -24 0 -14 7 -31 15 -40 8 -8 15 -17 15 -21 0 -10 48 -55 60
-55 5 0 10 -4 10 -9 0 -5 18 -12 40 -16 22 -4 40 -11 40 -16 0 -12 147 -12
154 0 3 5 22 12 41 15 19 4 35 11 35 16 0 6 6 10 13 10 7 0 229 216 492 480
264 264 483 479 487 477 7 -2 128 -121 416 -409 84 -84 158 -158 165 -164 7
-6 22 -22 33 -35 65 -71 352 -349 362 -349 7 0 12 -4 12 -10 0 -5 16 -12 35
-16 19 -3 38 -10 41 -15 7 -12 154 -12 154 0 0 5 18 12 40 16 22 4 40 11 40
16 0 5 5 9 10 9 14 0 60 46 60 60 0 5 4 10 10 10 5 0 12 16 16 35 3 19 10 35
15 35 5 0 9 38 9 85 0 47 -4 85 -9 85 -5 0 -11 17 -15 39 -4 29 -19 51 -61 92
-69 68 -83 82 -139 138 -13 14 -734 735 -747 747 -5 5 -67 68 -138 139 -145
145 -156 155 -171 155 -5 0 -10 5 -10 10 0 6 -9 10 -19 10 -11 0 -23 5 -26 10
-3 6 -42 10 -85 10 -43 0 -82 -4 -85 -10z"/>
</g>
</svg>
